<svg width="640" height="640" xmlns="http://www.w3.org/2000/svg" xmlns:xlink="http://www.w3.org/1999/xlink" preserveAspectRatio="xMidYMid meet">
 <defs>
  <path id="c2VhKFLfeY" d="m53,122.5c0,-3.3 1,-3.6 7.5,-2.9c5.3,0.7 5.6,0.8 5.3,3.3c-0.3,2.2 -0.8,2.6 -3.8,2.7c-1.9,0.1 -4.7,-0.1 -6.2,-0.3c-2.2,-0.3 -2.8,-1 -2.8,-2.8z"/>
  <path id="a3UM8anWSY" d="m81.5,114.4c3.4,-1.6 3.7,-1.6 5.3,0c2.1,2.1 0.8,4.5 -3.5,6.3c-2.5,1 -3.4,1 -4.8,-0.1c-2.5,-1.8 -1.4,-4.1 3,-6.2z"/>
  <path id="cXxdclrLi" d="m43,113.6c2.9,2 4,3.3 3.8,4.8c-0.4,3.1 -3.7,3 -8.3,-0.2c-7.7,-5.4 -3.4,-9.8 4.5,-4.6z"/>
  <path id="b1AZhSboc0" d="m94.5,95c-0.33,-0.97 -2,-5.8 -5,-14.5c-9,-3.06 -14,-4.76 -15,-5.1c-13.4,-4.6 -15,-5.3 -15,-7.4c0,-1.9 7,-6.3 47.5,-29.8c26.1,-15.1 48.7,-27.7 50.1,-27.9c1.5,-0.3 2.9,0 3.3,0.5c0.5,0.9 -13.5,83.3 -15,88.5c-0.8,2.5 -3.2,2.1 -12.6,-1.9c-4.5,-2 -9.3,-4 -10.5,-4.4c-1.9,-0.8 -3,0.2 -9.5,9c-5.3,7.2 -7.9,9.9 -9.5,10c-1.2,0 -2.5,-0.6 -3,-1.2c-0.4,-0.7 -3,-7.8 -5.8,-15.8zm17.4,-6.5c-2.6,-0.8 -2.5,-0.9 -3.3,4.5c-0.05,0.3 -0.28,1.8 -0.7,4.5c1.26,-1.5 1.96,-2.33 2.1,-2.5c1.1,-1.4 2.5,-3.3 3,-4.2c0.8,-1.3 0.5,-1.8 -1.1,-2.3zm6.2,-26.2c0.94,-1.32 5.64,-7.92 14.1,-19.8l-18.2,18.1l-18.2,18.1c1.08,3.42 1.68,5.32 1.8,5.7c1,3.1 2.2,5.6 2.6,5.6c0.5,0 0.8,0.6 0.7,1.3c-0.1,0.6 0,2.1 0.1,3.2c0.3,2.2 2.7,-6.6 2.9,-10.2c0.1,-1.3 6.4,-11.2 14.2,-22zm33.5,-35c-0.2,-0.2 -8.1,10.6 -17.7,23.9c-9.5,13.4 -18.3,25.7 -19.6,27.4c-0.15,0.21 -0.92,1.24 -2.3,3.1c7.68,3.3 11.95,5.13 12.8,5.5c7,3.1 13.4,5.7 14.2,5.7c1.2,0.1 2.7,-6.5 7.2,-32.6c3.2,-18 5.6,-32.8 5.4,-33zm-16.1,1.9c-1.2,0.6 -43.4,25 -56.5,32.6c-0.63,0.37 -3.76,2.24 -9.4,5.6c5.64,1.92 8.77,2.99 9.4,3.2c5.2,1.8 10.2,3.3 11,3.3c0.8,0.1 11.6,-10.1 24,-22.5c12.4,-12.5 22.1,-22.4 21.5,-22.2z"/>
  <path id="a9lfjvmGf" d="m53.7,119.9c0.5,-0.5 3.5,-0.7 6.7,-0.3c5.4,0.7 5.7,0.8 5.4,3.3c-0.3,2.2 -0.8,2.6 -3.8,2.8c-1.9,0.1 -4.6,-0.2 -6,-0.6c-2.6,-0.7 -3.9,-3.6 -2.3,-5.2z"/>
  <path id="c3TMFIC95T" d="m81.1,115c4.2,-2.2 6.9,-1.6 6.9,1.6c0,2.1 -7.2,5.4 -9.3,4.3c-2.8,-1.6 -2,-3.7 2.4,-5.9z"/>
  <path id="e8SnGuakRI" d="m34.6,112.6c0.9,-2.3 3.1,-2 8.1,1c3.4,1.9 4.3,3.1 4.1,4.7c-0.4,3 -3.6,3.1 -8,0.2c-4.3,-2.9 -5,-3.8 -4.2,-5.9z"/>
  <path id="h55eGdYck" d="m95,95.5c-2.3,-7.1 -4.8,-13.6 -5.4,-14.3c-0.7,-0.6 -7.7,-3.4 -15.6,-6c-11.9,-4 -14.6,-5.2 -14.8,-6.9c-0.3,-1.7 7.1,-6.3 48.3,-30.2c26.7,-15.4 49.4,-28.1 50.5,-28.1c1,0 2.1,0.4 2.5,0.9c0.4,0.8 -13,79.3 -15,87.9c-0.8,3.1 -3,2.8 -13.6,-1.8c-5.1,-2.2 -9.8,-4.1 -10.6,-4.2c-0.7,-0.2 -4.6,4 -8.6,9.2c-7.4,9.8 -10.6,11.9 -12.5,8.3c-0.5,-1 -2.8,-7.6 -5.2,-14.8zm14.5,-7.3c-0.1,0.1 -0.6,2.3 -1,4.8c-0.05,0.3 -0.28,1.8 -0.7,4.5c1.86,-2.1 2.89,-3.27 3.1,-3.5c1.6,-1.9 3,-3.8 3.1,-4.2c0,-0.7 -3.9,-2.2 -4.5,-1.6zm5.1,-20.8c5.9,-8.2 12.2,-17.1 14.2,-19.9c2.3,-3.3 -2.8,1.2 -14.7,13.1c-1.22,1.21 -7.32,7.24 -18.3,18.1c1.08,3.42 1.68,5.32 1.8,5.7c1,3.1 2.2,5.6 2.6,5.6c0.5,0 0.8,0.6 0.7,1.3c-0.1,0.6 0,2.1 0.1,3.2c0.3,2.1 2.7,-6.5 2.9,-10.1c0.1,-1.2 4.9,-8.8 10.7,-17zm37.4,-40.8c0,-0.8 -9.4,12.1 -35.3,48.5c-0.31,0.45 -1.88,2.68 -4.7,6.7c8.28,3.54 12.88,5.51 13.8,5.9c7.5,3.3 14,5.7 14.3,5.4c0.3,-0.3 3.1,-15.2 6.3,-33.1c3.1,-17.9 5.6,-32.9 5.6,-33.4zm-14.5,1.3c-18.9,10.92 -29.4,16.99 -31.5,18.2c-17.3,10 -32.6,18.8 -34,19.7c-2.4,1.5 -2.3,1.6 7,4.8c5.2,1.8 10.2,3.3 11,3.3c0.8,0.1 11.9,-10.3 24.5,-22.9c3.07,-3.08 10.73,-10.78 23,-23.1z"/>
 </defs>
 <g>
  <title>background</title>
  <rect fill="none" id="canvas_background" height="402" width="582" y="-1" x="-1"/>
 </g>
 <g>
  <title>Layer 1</title>
  <g stroke="null" id="svg_1">
   <g stroke="null" id="svg_2">
    <g stroke="null" id="svg_3">
     <use transform="matrix(4.676785945892334,0,0,4.676785945892334,-126.1564076736613,-40.444645404815674) " stroke="null" x="-1.710576" y="8.26995" id="svg_4" fill="#164e87" xlink:href="#c2VhKFLfeY"/>
     <g stroke="null" id="svg_5">
      <use transform="matrix(4.676785945892334,0,0,4.676785945892334,-126.1564076736613,-40.444645404815674) " stroke="#000000" x="-1.710576" y="8.26995" id="svg_6" stroke-opacity="0" fill-opacity="0" xlink:href="#c2VhKFLfeY"/>
     </g>
    </g>
    <g stroke="null" id="svg_7">
     <use transform="matrix(4.676785945892334,0,0,4.676785945892334,-126.1564076736613,-40.444645404815674) " stroke="null" x="-1.710576" y="8.26995" id="svg_8" fill="#164e87" xlink:href="#a3UM8anWSY"/>
     <g stroke="null" id="svg_9">
      <use transform="matrix(4.676785945892334,0,0,4.676785945892334,-126.1564076736613,-40.444645404815674) " stroke="#000000" x="-1.710576" y="8.26995" id="svg_10" stroke-opacity="0" fill-opacity="0" xlink:href="#a3UM8anWSY"/>
     </g>
    </g>
    <g stroke="null" id="svg_11">
     <use transform="matrix(4.676785945892334,0,0,4.676785945892334,-126.1564076736613,-40.444645404815674) " stroke="null" x="-1.710576" y="8.26995" id="svg_12" fill="#164e87" xlink:href="#cXxdclrLi"/>
     <g stroke="null" id="svg_13">
      <use transform="matrix(4.676785945892334,0,0,4.676785945892334,-126.1564076736613,-40.444645404815674) " stroke="#000000" x="-1.710576" y="8.26995" id="svg_14" stroke-opacity="0" fill-opacity="0" xlink:href="#cXxdclrLi"/>
     </g>
    </g>
    <g stroke="null" id="svg_15">
     <use transform="matrix(4.676785945892334,0,0,4.676785945892334,-126.1564076736613,-40.444645404815674) " stroke="null" x="-1.710576" y="8.26995" id="svg_16" fill="#164e87" xlink:href="#b1AZhSboc0"/>
     <g stroke="null" id="svg_17">
      <use transform="matrix(4.676785945892334,0,0,4.676785945892334,-126.1564076736613,-40.444645404815674) " stroke="#000000" x="-1.710576" y="8.26995" id="svg_18" stroke-opacity="0" fill-opacity="0" xlink:href="#b1AZhSboc0"/>
     </g>
    </g>
    <g stroke="null" id="svg_19">
     <use transform="matrix(4.676785945892334,0,0,4.676785945892334,-126.1564076736613,-40.444645404815674) " stroke="null" x="-1.710576" y="8.26995" id="svg_20" fill="#3d90e3" xlink:href="#a9lfjvmGf"/>
     <g stroke="null" id="svg_21">
      <use transform="matrix(4.676785945892334,0,0,4.676785945892334,-126.1564076736613,-40.444645404815674) " stroke="#000000" x="-1.710576" y="8.26995" id="svg_22" stroke-opacity="0" fill-opacity="0" xlink:href="#a9lfjvmGf"/>
     </g>
    </g>
    <g stroke="null" id="svg_23">
     <use transform="matrix(4.676785945892334,0,0,4.676785945892334,-126.1564076736613,-40.444645404815674) " stroke="null" x="-1.710576" y="8.26995" id="svg_24" fill="#3d90e3" xlink:href="#c3TMFIC95T"/>
     <g stroke="null" id="svg_25">
      <use transform="matrix(4.676785945892334,0,0,4.676785945892334,-126.1564076736613,-40.444645404815674) " stroke="#000000" x="-1.710576" y="8.26995" id="svg_26" stroke-opacity="0" fill-opacity="0" xlink:href="#c3TMFIC95T"/>
     </g>
    </g>
    <g stroke="null" id="svg_27">
     <use transform="matrix(4.676785945892334,0,0,4.676785945892334,-126.1564076736613,-40.444645404815674) " stroke="null" x="-1.710576" y="8.26995" id="svg_28" fill="#3d90e3" xlink:href="#e8SnGuakRI"/>
     <g stroke="null" id="svg_29">
      <use transform="matrix(4.676785945892334,0,0,4.676785945892334,-126.1564076736613,-40.444645404815674) " stroke="#000000" x="-1.710576" y="8.26995" id="svg_30" stroke-opacity="0" fill-opacity="0" xlink:href="#e8SnGuakRI"/>
     </g>
    </g>
    <g stroke="null" id="svg_31">
     <use transform="matrix(4.676785945892334,0,0,4.676785945892334,-126.1564076736613,-40.444645404815674) " stroke="null" x="-1.710576" y="8.26995" id="svg_32" fill="#3d90e3" xlink:href="#h55eGdYck"/>
     <g stroke="null" id="svg_33">
      <use transform="matrix(4.676785945892334,0,0,4.676785945892334,-126.1564076736613,-40.444645404815674) " stroke="#000000" x="-1.710576" y="8.26995" id="svg_34" stroke-opacity="0" fill-opacity="0" xlink:href="#h55eGdYck"/>
     </g>
    </g>
   </g>
  </g>
 </g>
</svg>