<?xml version="1.0" encoding="UTF-8" standalone="no"?>
<!DOCTYPE svg PUBLIC "-//W3C//DTD SVG 1.1//EN" "http://www.w3.org/Graphics/SVG/1.1/DTD/svg11.dtd">
<svg version="1.1" xmlns="http://www.w3.org/2000/svg" xmlns:xlink="http://www.w3.org/1999/xlink" preserveAspectRatio="xMidYMid meet" viewBox="0 0 640 640" width="1797.12" height="1797.12"><defs><path d="M53 122.5C53 119.2 54 118.9 60.5 119.6C65.8 120.3 66.1 120.4 65.8 122.9C65.5 125.1 65 125.5 62 125.6C60.1 125.7 57.3 125.5 55.8 125.3C53.6 125 53 124.3 53 122.5Z" id="c2VhKFLfeY"></path><path d="M81.5 114.4C84.9 112.8 85.2 112.8 86.8 114.4C88.9 116.5 87.6 118.9 83.3 120.7C80.8 121.7 79.9 121.7 78.5 120.6C76 118.8 77.1 116.5 81.5 114.4Z" id="a3UM8anWSY"></path><path d="M43 113.6C45.9 115.6 47 116.9 46.8 118.4C46.4 121.5 43.1 121.4 38.5 118.2C30.8 112.8 35.1 108.4 43 113.6Z" id="cXxdclrLi"></path><path d="M94.5 95C94.17 94.03 92.5 89.2 89.5 80.5C80.5 77.44 75.5 75.74 74.5 75.4C61.1 70.8 59.5 70.1 59.5 68C59.5 66.1 66.5 61.7 107 38.2C133.1 23.1 155.7 10.5 157.1 10.3C158.6 10 160 10.3 160.4 10.8C160.9 11.7 146.9 94.1 145.4 99.3C144.6 101.8 142.2 101.4 132.8 97.4C128.3 95.4 123.5 93.4 122.3 93C120.4 92.2 119.3 93.2 112.8 102C107.5 109.2 104.9 111.9 103.3 112C102.1 112 100.8 111.4 100.3 110.8C99.9 110.1 97.3 103 94.5 95ZM111.9 88.5C109.3 87.7 109.4 87.6 108.6 93C108.55 93.3 108.32 94.8 107.9 97.5C109.16 96 109.86 95.17 110 95C111.1 93.6 112.5 91.7 113 90.8C113.8 89.5 113.5 89 111.9 88.5ZM118.1 62.3C119.04 60.98 123.74 54.38 132.2 42.5L114 60.6L95.8 78.7C96.88 82.12 97.48 84.02 97.6 84.4C98.6 87.5 99.8 90 100.2 90C100.7 90 101 90.6 100.9 91.3C100.8 91.9 100.9 93.4 101 94.5C101.3 96.7 103.7 87.9 103.9 84.3C104 83 110.3 73.1 118.1 62.3ZM151.6 27.3C151.4 27.1 143.5 37.9 133.9 51.2C124.4 64.6 115.6 76.9 114.3 78.6C114.15 78.81 113.38 79.84 112 81.7C119.68 85 123.95 86.83 124.8 87.2C131.8 90.3 138.2 92.9 139 92.9C140.2 93 141.7 86.4 146.2 60.3C149.4 42.3 151.8 27.5 151.6 27.3ZM135.5 29.2C134.3 29.8 92.1 54.2 79 61.8C78.37 62.17 75.24 64.04 69.6 67.4C75.24 69.32 78.37 70.39 79 70.6C84.2 72.4 89.2 73.9 90 73.9C90.8 74 101.6 63.8 114 51.4C126.4 38.9 136.1 29 135.5 29.2Z" id="b1AZhSboc0"></path><path d="M53.7 119.9C54.2 119.4 57.2 119.2 60.4 119.6C65.8 120.3 66.1 120.4 65.8 122.9C65.5 125.1 65 125.5 62 125.7C60.1 125.8 57.4 125.5 56 125.1C53.4 124.4 52.1 121.5 53.7 119.9Z" id="a9lfjvmGf"></path><path d="M81.1 115C85.3 112.8 88 113.4 88 116.6C88 118.7 80.8 122 78.7 120.9C75.9 119.3 76.7 117.2 81.1 115Z" id="c3TMFIC95T"></path><path d="M34.6 112.6C35.5 110.3 37.7 110.6 42.7 113.6C46.1 115.5 47 116.7 46.8 118.3C46.4 121.3 43.2 121.4 38.8 118.5C34.5 115.6 33.8 114.7 34.6 112.6Z" id="e8SnGuakRI"></path><path d="M95 95.5C92.7 88.4 90.2 81.9 89.6 81.2C88.9 80.6 81.9 77.8 74 75.2C62.1 71.2 59.4 70 59.2 68.3C58.9 66.6 66.3 62 107.5 38.1C134.2 22.7 156.9 10 158 10C159 10 160.1 10.4 160.5 10.9C160.9 11.7 147.5 90.2 145.5 98.8C144.7 101.9 142.5 101.6 131.9 97C126.8 94.8 122.1 92.9 121.3 92.8C120.6 92.6 116.7 96.8 112.7 102C105.3 111.8 102.1 113.9 100.2 110.3C99.7 109.3 97.4 102.7 95 95.5ZM109.5 88.2C109.4 88.3 108.9 90.5 108.5 93C108.45 93.3 108.22 94.8 107.8 97.5C109.66 95.4 110.69 94.23 110.9 94C112.5 92.1 113.9 90.2 114 89.8C114 89.1 110.1 87.6 109.5 88.2ZM114.6 67.4C120.5 59.2 126.8 50.3 128.8 47.5C131.1 44.2 126 48.7 114.1 60.6C112.88 61.81 106.78 67.84 95.8 78.7C96.88 82.12 97.48 84.02 97.6 84.4C98.6 87.5 99.8 90 100.2 90C100.7 90 101 90.6 100.9 91.3C100.8 91.9 100.9 93.4 101 94.5C101.3 96.6 103.7 88 103.9 84.4C104 83.2 108.8 75.6 114.6 67.4ZM152 26.6C152 25.8 142.6 38.7 116.7 75.1C116.39 75.55 114.82 77.78 112 81.8C120.28 85.34 124.88 87.31 125.8 87.7C133.3 91 139.8 93.4 140.1 93.1C140.4 92.8 143.2 77.9 146.4 60C149.5 42.1 152 27.1 152 26.6ZM137.5 27.9C118.6 38.82 108.1 44.89 106 46.1C88.7 56.1 73.4 64.9 72 65.8C69.6 67.3 69.7 67.4 79 70.6C84.2 72.4 89.2 73.9 90 73.9C90.8 74 101.9 63.6 114.5 51C117.57 47.92 125.23 40.22 137.5 27.9Z" id="h55eGdYck"></path></defs><g><g><g><use xlink:href="#c2VhKFLfeY" opacity="1" fill="#164e87" fill-opacity="1"></use><g><use xlink:href="#c2VhKFLfeY" opacity="1" fill-opacity="0" stroke="#000000" stroke-width="1" stroke-opacity="0"></use></g></g><g><use xlink:href="#a3UM8anWSY" opacity="1" fill="#164e87" fill-opacity="1"></use><g><use xlink:href="#a3UM8anWSY" opacity="1" fill-opacity="0" stroke="#000000" stroke-width="1" stroke-opacity="0"></use></g></g><g><use xlink:href="#cXxdclrLi" opacity="1" fill="#164e87" fill-opacity="1"></use><g><use xlink:href="#cXxdclrLi" opacity="1" fill-opacity="0" stroke="#000000" stroke-width="1" stroke-opacity="0"></use></g></g><g><use xlink:href="#b1AZhSboc0" opacity="1" fill="#164e87" fill-opacity="1"></use><g><use xlink:href="#b1AZhSboc0" opacity="1" fill-opacity="0" stroke="#000000" stroke-width="1" stroke-opacity="0"></use></g></g><g><use xlink:href="#a9lfjvmGf" opacity="1" fill="#3d90e3" fill-opacity="1"></use><g><use xlink:href="#a9lfjvmGf" opacity="1" fill-opacity="0" stroke="#000000" stroke-width="1" stroke-opacity="0"></use></g></g><g><use xlink:href="#c3TMFIC95T" opacity="1" fill="#3d90e3" fill-opacity="1"></use><g><use xlink:href="#c3TMFIC95T" opacity="1" fill-opacity="0" stroke="#000000" stroke-width="1" stroke-opacity="0"></use></g></g><g><use xlink:href="#e8SnGuakRI" opacity="1" fill="#3d90e3" fill-opacity="1"></use><g><use xlink:href="#e8SnGuakRI" opacity="1" fill-opacity="0" stroke="#000000" stroke-width="1" stroke-opacity="0"></use></g></g><g><use xlink:href="#h55eGdYck" opacity="1" fill="#3d90e3" fill-opacity="1"></use><g><use xlink:href="#h55eGdYck" opacity="1" fill-opacity="0" stroke="#000000" stroke-width="1" stroke-opacity="0"></use></g></g></g></g></svg>