<?xml version="1.0" standalone="no"?>
<!DOCTYPE svg PUBLIC "-//W3C//DTD SVG 20010904//EN"
 "http://www.w3.org/TR/2001/REC-SVG-20010904/DTD/svg10.dtd">
<svg version="1.0" xmlns="http://www.w3.org/2000/svg"
 width="800.000000pt" height="800.000000pt" viewBox="0 0 800.000000 800.000000"
 preserveAspectRatio="xMidYMid meet">
<metadata>
Created by potrace 1.16, written by Peter Selinger 2001-2019
</metadata>
<g transform="translate(0.000000,800.000000) scale(0.100000,-0.100000)"
fill="#000000" stroke="none">
<path d="M0 4000 l0 -4000 4000 0 4000 0 0 4000 0 4000 -4000 0 -4000 0 0
-4000z m5080 2234 c119 -54 193 -175 193 -314 0 -142 -66 -251 -191 -312 -57
-28 -76 -33 -142 -33 -66 0 -85 5 -142 33 -125 61 -191 170 -191 312 0 98 28
172 91 238 103 109 246 137 382 76z m-1956 -1049 c52 -22 120 -87 148 -143
l23 -47 3 -665 c3 -700 2 -707 -42 -740 -33 -25 -118 -70 -131 -70 -7 0 -18
-7 -25 -15 -10 -12 -129 -83 -274 -163 -22 -13 -43 -27 -44 -32 -2 -6 -7 -8
-12 -5 -5 3 -15 -2 -24 -10 -13 -14 -15 -11 -21 27 -3 24 -5 410 -3 858 l3
815 23 47 c26 52 97 122 140 140 78 31 165 32 236 3z m1914 -9 c61 -31 105
-78 133 -141 28 -63 40 -276 18 -316 -7 -13 -13 -27 -12 -30 2 -5 -75 -52
-165 -101 -18 -10 -38 -15 -44 -12 -6 4 -8 3 -5 -3 3 -5 -7 -17 -24 -27 -16
-9 -29 -14 -29 -9 0 4 -4 3 -8 -4 -7 -11 -178 -113 -196 -116 -6 -1 -19 -10
-30 -19 -26 -23 -30 -23 -45 5 -9 17 -12 95 -9 308 l3 284 27 51 c76 145 245
202 386 130z"/>
</g>
</svg>
